<svg id="Layer_1" data-name="Layer 1" xmlns="http://www.w3.org/2000/svg" viewBox="0 0 425 500"><g id="Stacked_Medium" data-name="Stacked Medium"><g id="Group_2487" data-name="Group 2487"><g id="Group_2418" data-name="Group 2418"><path id="Path_1305" data-name="Path 1305" d="M19.83,391.81V329.39H32.67v50.74H61.12v11.68Z"/><path id="Path_1306" data-name="Path 1306" d="M92.42,392.71a27.27,27.27,0,0,1-13.28-3.12A22.49,22.49,0,0,1,70.27,381a24.34,24.34,0,0,1-3.17-12.48,26.3,26.3,0,0,1,3.08-12.89,22.9,22.9,0,0,1,8.47-8.78,23.8,23.8,0,0,1,12.44-3.21,21.33,21.33,0,0,1,19.22,11.41,23.87,23.87,0,0,1,2.63,12l-.09,3.84H79a12.7,12.7,0,0,0,4.87,8,15.84,15.84,0,0,0,9.85,2.95,16.82,16.82,0,0,0,5.84-1,20.26,20.26,0,0,0,5.66-3.49l5.9,8.21a27.69,27.69,0,0,1-8.79,5.22A28.38,28.38,0,0,1,92.42,392.71Zm-1.25-38.53q-10.08,0-12.12,9.1h22.3v-.36a8.73,8.73,0,0,0-3.18-6.29,10.49,10.49,0,0,0-7-2.45Z"/><path id="Path_1307" data-name="Path 1307" d="M128.65,334.92a8.15,8.15,0,0,1-5.58-1.78,6.27,6.27,0,0,1-2-4.91,6.43,6.43,0,0,1,2-4.9,9.37,9.37,0,0,1,11.11-.09,6.43,6.43,0,0,1,2,5,6.26,6.26,0,0,1-2,4.81A7.74,7.74,0,0,1,128.65,334.92Zm-6.07,56.9V344.73H134.8v47.08Z"/><path id="Path_1308" data-name="Path 1308" d="M166.58,392.71a22.76,22.76,0,0,1-12-3.21,23.23,23.23,0,0,1-8.39-8.74,27.07,27.07,0,0,1,0-25.06,23.16,23.16,0,0,1,8.39-8.74,22.58,22.58,0,0,1,12-3.21,28.13,28.13,0,0,1,11.55,2.32,19.19,19.19,0,0,1,8.16,6.51l-6.69,8a15.58,15.58,0,0,0-5.17-4.41,13.79,13.79,0,0,0-6.69-1.83,12.2,12.2,0,0,0-6.65,1.83,12.65,12.65,0,0,0-4.54,4.95,14.71,14.71,0,0,0-1.65,7,14.53,14.53,0,0,0,1.69,7.05,13,13,0,0,0,4.64,4.95,12.29,12.29,0,0,0,6.6,1.83,13.56,13.56,0,0,0,6.42-1.56A18.1,18.1,0,0,0,179.6,376l6.69,8a21.15,21.15,0,0,1-8.38,6.29A27.8,27.8,0,0,1,166.58,392.71Z"/><path id="Path_1309" data-name="Path 1309" d="M217.85,392.71a27.27,27.27,0,0,1-13.28-3.12A22.49,22.49,0,0,1,195.7,381a24.34,24.34,0,0,1-3.17-12.48,26.3,26.3,0,0,1,3.08-12.89,22.9,22.9,0,0,1,8.47-8.78,23.83,23.83,0,0,1,12.44-3.21,21.33,21.33,0,0,1,19.22,11.41,23.87,23.87,0,0,1,2.63,12l-.09,3.84H204.39a12.64,12.64,0,0,0,4.86,8,15.84,15.84,0,0,0,9.85,2.95,16.37,16.37,0,0,0,5.84-1,20.37,20.37,0,0,0,5.66-3.48l5.89,8.2a27.69,27.69,0,0,1-8.79,5.22A28.28,28.28,0,0,1,217.85,392.71Zm-1.25-38.53q-10.07,0-12.12,9.1h22.3v-.36a8.76,8.76,0,0,0-3.17-6.29A10.53,10.53,0,0,0,216.6,354.18Z"/><path id="Path_1310" data-name="Path 1310" d="M263.69,392.71a29.66,29.66,0,0,1-11.59-2.14,20.39,20.39,0,0,1-8.21-6.06l7.67-6.52a15.72,15.72,0,0,0,6.07,4.24,18.94,18.94,0,0,0,6.86,1.29,7.29,7.29,0,0,0,4.46-1.25,4.09,4.09,0,0,0,1.7-3.48,3.66,3.66,0,0,0-1.61-3.12,31.61,31.61,0,0,0-7.67-2.68q-9-2.31-12.75-6.33a12.52,12.52,0,0,1-3.3-8.83,11.54,11.54,0,0,1,2.5-7.35,16.72,16.72,0,0,1,6.6-5,22.16,22.16,0,0,1,8.91-1.78,27.85,27.85,0,0,1,10.44,2,23.44,23.44,0,0,1,8.2,5.35l-6.6,7.22a23,23,0,0,0-5.75-3.87,13.91,13.91,0,0,0-6-1.56c-4.28,0-6.42,1.48-6.42,4.46a4.11,4.11,0,0,0,2,3.38q1.78,1.26,8.12,2.95,8.48,2.22,11.95,5.88a11.46,11.46,0,0,1,3,8.3,12.82,12.82,0,0,1-2.45,7.67,16.34,16.34,0,0,1-6.65,5.3A22.43,22.43,0,0,1,263.69,392.71Z"/><path id="Path_1311" data-name="Path 1311" d="M296.06,391.82V355.7h-8.91v-11h8.91v-12h12.13v12h9.9v11h-9.9v36.12Z"/><path id="Path_1312" data-name="Path 1312" d="M348.15,392.71a27.31,27.31,0,0,1-13.29-3.12A22.56,22.56,0,0,1,326,381a24.34,24.34,0,0,1-3.17-12.48,26.3,26.3,0,0,1,3.08-12.89,23,23,0,0,1,8.47-8.78,23.83,23.83,0,0,1,12.44-3.21A21.33,21.33,0,0,1,366,355.07a23.77,23.77,0,0,1,2.63,12l-.09,3.84H334.68a12.73,12.73,0,0,0,4.86,8,15.88,15.88,0,0,0,9.86,2.95,16.82,16.82,0,0,0,5.84-1,20.26,20.26,0,0,0,5.66-3.49l5.89,8.21a27.48,27.48,0,0,1-8.79,5.21A28.11,28.11,0,0,1,348.15,392.71Zm-1.25-38.53q-10.08,0-12.13,9.1h22.3v-.36a8.76,8.76,0,0,0-3.17-6.29A10.53,10.53,0,0,0,346.9,354.18Z"/><path id="Path_1313" data-name="Path 1313" d="M378.11,391.82V344.73h11.77l.18,7.76a19.33,19.33,0,0,1,6.11-6.29,14.46,14.46,0,0,1,8-2.45,18.72,18.72,0,0,1,3,.22,13.78,13.78,0,0,1,2.36.58l-3.3,13.38a9.69,9.69,0,0,0-2.5-.89,12.88,12.88,0,0,0-3-.36,10,10,0,0,0-7.35,3,10.25,10.25,0,0,0-3,7.54v24.61Z"/><path id="Path_1314" data-name="Path 1314" d="M38.3,471.77A21.77,21.77,0,0,1,18.44,460,26.82,26.82,0,0,1,15.5,447.2a24.66,24.66,0,0,1,6.83-17.27,22.82,22.82,0,0,1,29.38-3,18.21,18.21,0,0,1,4.41,4.26l-4.92,5.11q-5.87-6-12.28-6a15.29,15.29,0,0,0-8,2.18,15.93,15.93,0,0,0-5.74,6A17.72,17.72,0,0,0,23,447.19a18.72,18.72,0,0,0,2.08,9.08,14.9,14.9,0,0,0,5.8,5.93,17.15,17.15,0,0,0,8.64,2.11A16.26,16.26,0,0,0,46.09,463a17.11,17.11,0,0,0,5.46-3.75l3.68,6A15.3,15.3,0,0,1,51,468.56a25,25,0,0,1-6,2.35A26.66,26.66,0,0,1,38.3,471.77Z"/><path id="Path_1315" data-name="Path 1315" d="M68.19,427.34a4.41,4.41,0,0,1-3.45-7.64,4.72,4.72,0,0,1,3.45-1.23,4.41,4.41,0,0,1,3.45,7.64A4.72,4.72,0,0,1,68.19,427.34Zm-3.41,43.74V435.26h7v35.82Z"/><path id="Path_1316" data-name="Path 1316" d="M86.89,471.08v-29H79.45v-6.83h7.44v-9.14h7v9.14h8.32v6.83H93.92v29Z"/><path id="Path_1317" data-name="Path 1317" d="M116.94,486.78l6.07-14-16.65-37.53h8.18l11.2,26.34c.22.5.52,1.3.88,2.39l1-2.87L137,435.26h8.33l-14.74,35.82-6.07,15.7Z"/><path id="Path_1318" data-name="Path 1318" d="M196.53,471.77A21.8,21.8,0,0,1,176.66,460a26.93,26.93,0,0,1-2.93-12.76,24.82,24.82,0,0,1,1.8-9.52,24.5,24.5,0,0,1,5-7.75,22.82,22.82,0,0,1,29.38-3,17.85,17.85,0,0,1,4.4,4.27l-4.91,5.11q-5.88-6-12.29-6a15.32,15.32,0,0,0-8,2.18,15.83,15.83,0,0,0-5.73,6,17.84,17.84,0,0,0-2.12,8.73,18.84,18.84,0,0,0,2.08,9.08,14.93,14.93,0,0,0,5.81,5.93,17.22,17.22,0,0,0,8.63,2.12A16.2,16.2,0,0,0,204.3,463a16.85,16.85,0,0,0,5.46-3.75l3.69,6a15.57,15.57,0,0,1-4.27,3.34,25,25,0,0,1-6,2.35A26.72,26.72,0,0,1,196.53,471.77Z"/><path id="Path_1319" data-name="Path 1319" d="M236.67,471.77a18.25,18.25,0,0,1-9.38-2.43,17.7,17.7,0,0,1-6.52-6.62,20.45,20.45,0,0,1,0-19.17,17.7,17.7,0,0,1,6.52-6.62,19.26,19.26,0,0,1,18.7,0,17.7,17.7,0,0,1,6.52,6.62,20.45,20.45,0,0,1,0,19.17,17.56,17.56,0,0,1-6.52,6.62A18,18,0,0,1,236.67,471.77Zm0-6.42a10.44,10.44,0,0,0,5.73-1.61,11.09,11.09,0,0,0,4-4.36,12.76,12.76,0,0,0,1.37-6.25,13,13,0,0,0-1.37-6.31,10.73,10.73,0,0,0-4-4.33,11.2,11.2,0,0,0-11.49,0,11.07,11.07,0,0,0-4,4.37,15,15,0,0,0,0,12.49,11,11,0,0,0,4,4.36,10.59,10.59,0,0,0,5.76,1.61Z"/><path id="Path_1320" data-name="Path 1320" d="M274,471.77a11.62,11.62,0,0,1-9.15-3.89,15.36,15.36,0,0,1-3.41-10.51V435.26h7v20.2a11.38,11.38,0,0,0,2.22,7.43,7.53,7.53,0,0,0,6.17,2.74,9,9,0,0,0,6.45-2.46,8.46,8.46,0,0,0,2.56-6.35V435.26h7v35.82h-7v-5.73a13.39,13.39,0,0,1-4.95,4.65A14,14,0,0,1,274,471.77Z"/><path id="Path_1321" data-name="Path 1321" d="M301.55,471.08V435.26h7v5.59a14.43,14.43,0,0,1,5-4.5,13.36,13.36,0,0,1,6.72-1.84q12.29,0,12.29,14.74v21.83h-7V449.72q0-9.21-7.58-8.8a10.2,10.2,0,0,0-4.81,1.13,8.73,8.73,0,0,0-3.38,3,7.81,7.81,0,0,0-1.22,4.3v21.7Z"/><path id="Path_1322" data-name="Path 1322" d="M356.23,471.77a16.5,16.5,0,0,1-8.91-2.46,17.56,17.56,0,0,1-6.2-6.69,20.75,20.75,0,0,1,0-19,17.56,17.56,0,0,1,6.2-6.69,16.41,16.41,0,0,1,8.91-2.45,19.28,19.28,0,0,1,8.7,1.94,14.09,14.09,0,0,1,6,5.29L367,446.51a13.32,13.32,0,0,0-4.54-4,11.24,11.24,0,0,0-5.56-1.63,10.72,10.72,0,0,0-5.83,1.6,11.45,11.45,0,0,0-4.06,4.4,13.08,13.08,0,0,0-1.5,6.28,12.39,12.39,0,0,0,5.73,10.65,10.64,10.64,0,0,0,5.73,1.64q5.52,0,10-5.47l3.89,4.78a16.15,16.15,0,0,1-6.24,5A19.13,19.13,0,0,1,356.23,471.77Z"/><path id="Path_1323" data-name="Path 1323" d="M382.23,427.34a4.41,4.41,0,0,1-3.45-7.64,4.71,4.71,0,0,1,3.44-1.23,4.41,4.41,0,0,1,3.45,7.64A4.69,4.69,0,0,1,382.23,427.34Zm-3.42,43.74V435.26h7v35.82Z"/><path id="Path_1324" data-name="Path 1324" d="M395.49,471.08V420.59h7v50.49Z"/></g></g><g id="Stacked_Medium-2" data-name="Stacked Medium-2"><path id="Path_1325" data-name="Path 1325" d="M206.56,126.24a35.06,35.06,0,1,0,35.06,35.06A35.06,35.06,0,0,0,206.56,126.24Zm23,43.49a24.52,24.52,0,1,1,1.49-8.43,24.53,24.53,0,0,1-1.49,8.43Z"/><path id="Path_1326" data-name="Path 1326" d="M343.38,112.87c-15.45-11.15-42.74-33.82-63.84-28.2-19.31,5.13-20.49,15.92-24.77,23a10.79,10.79,0,0,1-2.17,2.5l-.08.06a6.39,6.39,0,0,1-1.48.85h0c-4.68,1.86-10.76-2.74-10.46-7.62a4.85,4.85,0,0,1,.07-.63,6.06,6.06,0,0,1,.28-1l.23-.54s0-.07.05-.1a10.48,10.48,0,0,1,1.46-2.31c5.42-6.25,15.32-10.71,14.23-30.65-1.18-21.82-36.46-45.16-50.34-55l-3.79,3c-15.37,11.25-45.37,30.19-46.55,52-1.08,19.94,8.81,24.4,14.23,30.65a11,11,0,0,1,1.71,2.85s0,0,0,.06a6.59,6.59,0,0,1,.35,1.7h0c.36,5.59-7.42,10.35-12,6.74-.13-.12-.27-.23-.4-.36l-.14-.13a10,10,0,0,1-1.71-2.06c-4.27-7.08-5.45-17.87-24.76-23-21.11-5.61-54.21,20.72-67.87,30.88l1.68,4.52c5.95,18.1,14.7,52.48,35.08,60.35,18.64,7.19,25.93-.84,33.56-4.06a11.31,11.31,0,0,1,3.25-.75h0a6.86,6.86,0,0,1,1.75.19h0c5.43,1.38,7.56,10.27,2.71,13.45l-.43.26-.22.12a10.49,10.49,0,0,1-2.47,1c-8.05,1.87-18.68-.34-29.52,16.44-11.87,18.34,3,58,8.39,74.09l4.82-.21c19-.06,54.46,2.25,68.23-14.71,12.6-15.5,7.23-24.92,6.51-33.16a10.89,10.89,0,0,1,.3-3.32v0a6.77,6.77,0,0,1,.72-1.6h0c2.69-4.26,10.32-4.11,12.95,0a1.62,1.62,0,0,1,.1.18,6.13,6.13,0,0,1,.58,1.37c0,.17.08.34.11.52a1,1,0,0,1,0,.2,10,10,0,0,1,.16,2.67c-.7,8.24-6.09,17.67,6.52,33.16,13.78,17,56,15.1,73.05,14.91l1.3-4.65c5.83-18.13,19-51.09,7.1-69.44-10.85-16.76-21.48-14.56-29.53-16.44a11,11,0,0,1-3.06-1.29l-.06,0a6.19,6.19,0,0,1-1.28-1.17h0c-3.22-3.87-.72-11.07,4-12.3a5.84,5.84,0,0,1,.63-.13,5.93,5.93,0,0,1,1,0l.59.06h.11a10.36,10.36,0,0,1,2.64.68c7.63,3.23,14.92,11.25,33.56,4,20.38-7.86,31.68-48.63,36.76-64.87Zm-17.49,12.72c-3.65,12.21-9.65,34.55-22.61,40.46a29.74,29.74,0,0,1-14.08,2.51h0c-10.47-.22-14.19-2.15-19.84-1h0c-11.2,2-15.84,17.78-7.9,25.3h0l.23.2c.1.09.2.19.32.28,4.91,4.36,11.22,7.72,13.32,9.34l-.05-.07c4.85,3,8.83,6.11,12.08,11.85,7.75,13.69-1.29,34.5-5.27,45.87l-1.05,3.49-3.66-.08c-12.74.3-35.84,1.5-45.46-9a29.62,29.62,0,0,1-6.74-12.61v0c-3-10-2.33-14.16-5.19-19.17h0c-5.35-10-21.81-9.58-26.5.29h0c0,.08-.07.16-.1.23l-.21.46c-2.62,6-3.86,13-4.75,15.54l0-.07c-1.39,5.55-3.08,10.29-7.53,15.15-10.64,11.6-33.22,9.44-45.26,9.16l-3.65.08-1-3.5c-4.22-12-12.5-33.63-5.49-46A29.67,29.67,0,0,1,135.45,204l0,0c8.6-6,12.74-6.59,16.63-10.86h0c7.9-8.19,2.37-23.7-8.47-25.11h0l-.24,0-.51,0c-6.53-.63-13.59.36-16.24.29l.08,0c-5.71.39-10.74.25-16.74-2.48-14.31-6.53-19.23-28.68-22.7-40.21L86,122.13l3-2.08c10.13-7.73,28.11-22.28,42.07-19.44A29.61,29.61,0,0,1,144,106.85h0c8.34,6.33,10.21,10.07,15.47,12.46h0c10.22,5,23.26-5.07,21.26-15.82h0c0-.1-.05-.2-.07-.3s-.05-.28-.09-.42c-1.41-6.41-4.54-12.83-5.29-15.38v.09c-2.13-5.31-3.55-10.14-2.8-16.69,1.78-15.63,21.32-27.15,31.23-34l2.9-2.21,2.91,2.21C220,44,239.35,56.64,241,70.78A29.83,29.83,0,0,1,239,85v0c-3.45,9.88-6.44,12.82-7.07,18.56h0c-1.57,11.26,12,20.56,21.62,15.33h0l.29-.17.33-.19c5.67-3.33,10.81-8.3,13-9.8l-.08,0c4.39-3.66,8.55-6.51,15-7.82,15.42-3.13,32.42,11.89,42,19.19l3,2.08Z"/></g></g></svg>