<?xml version="1.0" encoding="utf-8"?>
<!-- Generator: Adobe Illustrator 25.4.1, SVG Export Plug-In . SVG Version: 6.00 Build 0)  -->
<svg version="1.1" id="Layer_1" xmlns="http://www.w3.org/2000/svg" xmlns:xlink="http://www.w3.org/1999/xlink" x="0px" y="0px"
	 width="425px" height="500px" viewBox="0 0 425 500" style="enable-background:new 0 0 425 500;" xml:space="preserve">
<style type="text/css">
	.st0{fill:#005961;}
</style>
<g id="Stacked_Medium">
	<g id="Group_2487">
		<g id="Group_2418">
			<path id="Path_1305" class="st0" d="M19.8,391.8v-62.4h12.8v50.7h28.5v11.7H19.8z"/>
			<path id="Path_1306" class="st0" d="M92.4,392.7c-4.6,0.1-9.2-1-13.3-3.1c-3.7-2-6.8-5-8.9-8.6c-2.2-3.8-3.3-8.1-3.2-12.5
				c-0.1-4.5,1-8.9,3.1-12.9c2-3.6,4.9-6.7,8.5-8.8c3.8-2.2,8.1-3.3,12.4-3.2c8-0.1,15.5,4.3,19.2,11.4c1.9,3.7,2.8,7.8,2.6,12
				l-0.1,3.8H79c0.5,3.2,2.3,6.1,4.9,8c2.9,2.1,6.3,3.1,9.8,3c2,0,4-0.3,5.8-1c2.1-0.8,4-2,5.7-3.5l5.9,8.2c-2.6,2.3-5.6,4-8.8,5.2
				C99.2,392,95.8,392.7,92.4,392.7z M91.2,354.2c-6.7,0-10.8,3-12.1,9.1h22.3v-0.4c-0.1-2.5-1.3-4.7-3.2-6.3
				C96.2,355,93.7,354.1,91.2,354.2z"/>
			<path id="Path_1307" class="st0" d="M128.6,334.9c-2,0.1-4-0.5-5.6-1.8c-1.4-1.3-2.1-3.1-2-4.9c-0.1-1.8,0.7-3.6,2-4.9
				c3.3-2.5,7.8-2.5,11.1-0.1c1.4,1.3,2.1,3.1,2,5c0.1,1.8-0.7,3.6-2,4.8C132.7,334.4,130.7,335,128.6,334.9z M122.6,391.8v-47.1
				h12.2v47.1L122.6,391.8z"/>
			<path id="Path_1308" class="st0" d="M166.6,392.7c-4.2,0.1-8.4-1-12-3.2c-3.5-2.1-6.4-5.1-8.4-8.7c-4.1-7.9-4.1-17.2,0-25.1
				c2-3.6,4.9-6.6,8.4-8.7c3.6-2.2,7.8-3.3,12-3.2c4-0.1,7.9,0.7,11.6,2.3c3.3,1.4,6.1,3.6,8.2,6.5l-6.7,8c-1.4-1.8-3.1-3.3-5.2-4.4
				c-2-1.2-4.3-1.8-6.7-1.8c-2.3,0-4.7,0.6-6.6,1.8c-1.9,1.2-3.5,2.9-4.5,5c-1.1,2.2-1.7,4.6-1.6,7c0,2.5,0.5,4.9,1.7,7
				c1.1,2,2.7,3.7,4.6,5c2,1.2,4.3,1.9,6.6,1.8c2.2,0,4.4-0.5,6.4-1.6c2-1.1,3.9-2.6,5.3-4.4l6.7,8c-2.2,2.8-5.1,4.9-8.4,6.3
				C174.3,391.9,170.5,392.7,166.6,392.7z"/>
			<path id="Path_1309" class="st0" d="M217.9,392.7c-4.6,0.1-9.2-1-13.3-3.1c-3.7-2-6.8-5-8.9-8.6c-2.2-3.8-3.3-8.1-3.2-12.5
				c-0.1-4.5,1-8.9,3.1-12.9c2-3.6,4.9-6.7,8.5-8.8c3.8-2.2,8.1-3.3,12.4-3.2c8-0.1,15.5,4.3,19.2,11.4c1.9,3.7,2.8,7.8,2.6,12
				l-0.1,3.8h-33.9c0.5,3.2,2.3,6.1,4.9,8c2.9,2.1,6.3,3.1,9.9,3c2,0,4-0.3,5.8-1c2.1-0.8,4-2,5.7-3.5l5.9,8.2
				c-2.6,2.3-5.6,4-8.8,5.2C224.6,392,221.2,392.7,217.9,392.7z M216.6,354.2c-6.7,0-10.8,3-12.1,9.1h22.3v-0.4
				c-0.1-2.4-1.3-4.7-3.2-6.3C221.6,355,219.2,354.1,216.6,354.2z"/>
			<path id="Path_1310" class="st0" d="M263.7,392.7c-4,0.1-7.9-0.7-11.6-2.1c-3.2-1.3-6-3.4-8.2-6.1l7.7-6.5
				c1.7,1.9,3.7,3.3,6.1,4.2c2.2,0.9,4.5,1.3,6.9,1.3c1.6,0.1,3.1-0.4,4.5-1.2c1.1-0.8,1.8-2.1,1.7-3.5c0-1.2-0.6-2.4-1.6-3.1
				c-2.4-1.2-5-2.1-7.7-2.7c-6-1.5-10.2-3.6-12.8-6.3c-2.2-2.4-3.4-5.6-3.3-8.8c0-2.7,0.8-5.3,2.5-7.4c1.7-2.2,4-3.9,6.6-5
				c2.8-1.2,5.8-1.8,8.9-1.8c3.6,0,7.1,0.7,10.4,2c3.1,1.2,5.9,3,8.2,5.4l-6.6,7.2c-1.7-1.6-3.6-2.9-5.8-3.9c-1.9-1-3.9-1.5-6-1.6
				c-4.3,0-6.4,1.5-6.4,4.5c0.1,1.4,0.8,2.7,2,3.4c1.2,0.8,3.9,1.8,8.1,3c5.7,1.5,9.6,3.4,12,5.9c2.1,2.3,3.1,5.2,3,8.3
				c0,2.8-0.8,5.4-2.5,7.7c-1.7,2.3-4,4.2-6.6,5.3C270.2,392.1,267,392.8,263.7,392.7z"/>
			<path id="Path_1311" class="st0" d="M296.1,391.8v-36.1h-8.9v-11h8.9v-12h12.1v12h9.9v11h-9.9v36.1H296.1z"/>
			<path id="Path_1312" class="st0" d="M348.1,392.7c-4.6,0.1-9.2-1-13.3-3.1c-3.7-2-6.8-5-8.9-8.6c-2.2-3.8-3.3-8.1-3.2-12.5
				c-0.1-4.5,1-8.9,3.1-12.9c2-3.6,4.9-6.7,8.5-8.8c3.8-2.2,8.1-3.3,12.4-3.2c8-0.1,15.5,4.3,19.2,11.4c1.9,3.7,2.8,7.8,2.6,12
				l-0.1,3.8h-33.9c0.5,3.2,2.3,6,4.9,8c2.9,2.1,6.3,3.1,9.9,3c2,0,4-0.3,5.8-1c2.1-0.8,4-2,5.7-3.5l5.9,8.2c-2.6,2.3-5.6,4-8.8,5.2
				C354.9,392,351.5,392.7,348.1,392.7z M346.9,354.2c-6.7,0-10.8,3-12.1,9.1h22.3v-0.4c-0.1-2.4-1.3-4.7-3.2-6.3
				C351.9,355,349.5,354.1,346.9,354.2z"/>
			<path id="Path_1313" class="st0" d="M378.1,391.8v-47.1h11.8l0.2,7.8c1.5-2.5,3.6-4.7,6.1-6.3c2.4-1.6,5.2-2.4,8-2.5
				c1,0,2,0.1,3,0.2c0.8,0.1,1.6,0.3,2.4,0.6l-3.3,13.4c-0.8-0.4-1.6-0.7-2.5-0.9c-1-0.2-2-0.4-3-0.4c-2.8-0.1-5.4,1-7.4,3
				c-2,2-3.1,4.7-3,7.5v24.6L378.1,391.8z"/>
			<path id="Path_1314" class="st0" d="M38.3,471.8c-8.3,0.2-16-4.4-19.9-11.8c-2-4-3-8.4-2.9-12.8c-0.1-6.4,2.4-12.6,6.8-17.3
				c7.7-8.1,20.2-9.3,29.4-3c1.7,1.2,3.2,2.6,4.4,4.3l-4.9,5.1c-3.9-4-8-6-12.3-6c-2.8,0-5.6,0.7-8,2.2c-2.4,1.5-4.4,3.5-5.7,6
				c-1.5,2.7-2.2,5.7-2.2,8.7c-0.1,3.2,0.6,6.3,2.1,9.1c1.3,2.5,3.3,4.5,5.8,5.9c2.6,1.5,5.6,2.2,8.6,2.1c2.3,0,4.5-0.4,6.6-1.3
				c2-0.9,3.9-2.2,5.5-3.8l3.7,6c-1.2,1.3-2.6,2.5-4.2,3.3c-1.9,1-3.9,1.8-6,2.4C42.8,471.5,40.6,471.8,38.3,471.8z"/>
			<path id="Path_1315" class="st0" d="M68.2,427.3c-2.4,0.3-4.6-1.5-4.9-3.9c-0.2-1.4,0.4-2.8,1.4-3.7c0.9-0.9,2.2-1.3,3.4-1.2
				c2.4-0.3,4.6,1.5,4.9,3.9c0.2,1.4-0.4,2.8-1.4,3.7C70.7,427,69.5,427.4,68.2,427.3z M64.8,471.1v-35.8h7v35.8L64.8,471.1z"/>
			<path id="Path_1316" class="st0" d="M86.9,471.1v-29h-7.4v-6.8h7.4v-9.1h7v9.1h8.3v6.8h-8.3v29H86.9z"/>
			<path id="Path_1317" class="st0" d="M116.9,486.8l6.1-14l-16.7-37.5h8.2l11.2,26.3c0.2,0.5,0.5,1.3,0.9,2.4l1-2.9l9.4-25.9h8.3
				l-14.7,35.8l-6.1,15.7L116.9,486.8z"/>
			<path id="Path_1318" class="st0" d="M196.5,471.8c-8.3,0.2-16-4.4-19.9-11.8c-2-3.9-3-8.3-2.9-12.8c0-3.3,0.6-6.5,1.8-9.5
				c1.2-2.9,2.9-5.5,5-7.8c7.7-8.1,20.2-9.3,29.4-3c1.7,1.2,3.2,2.6,4.4,4.3l-4.9,5.1c-3.9-4-8-6-12.3-6c-2.8,0-5.6,0.7-8,2.2
				c-2.4,1.5-4.4,3.5-5.7,6c-1.4,2.7-2.2,5.7-2.1,8.7c-0.1,3.2,0.6,6.3,2.1,9.1c1.3,2.5,3.4,4.5,5.8,5.9c2.6,1.4,5.6,2.2,8.6,2.1
				c2.2,0,4.5-0.5,6.5-1.4c2.1-0.9,3.9-2.2,5.5-3.8l3.7,6c-1.2,1.4-2.7,2.5-4.3,3.3c-1.9,1-3.9,1.8-6,2.4
				C201,471.5,198.8,471.8,196.5,471.8z"/>
			<path id="Path_1319" class="st0" d="M236.7,471.8c-3.3,0-6.5-0.8-9.4-2.4c-2.7-1.6-5-3.9-6.5-6.6c-3.2-6-3.2-13.2,0-19.2
				c1.5-2.7,3.8-5,6.5-6.6c5.8-3.2,12.9-3.2,18.7,0c2.7,1.6,5,3.9,6.5,6.6c3.2,6,3.2,13.2,0,19.2c-1.5,2.8-3.8,5-6.5,6.6
				C243.2,471,239.9,471.8,236.7,471.8z M236.7,465.3c2,0,4-0.5,5.7-1.6c1.7-1.1,3.1-2.6,4-4.4c1-1.9,1.5-4.1,1.4-6.2
				c0.1-2.2-0.4-4.4-1.4-6.3c-0.9-1.8-2.3-3.3-4-4.3c-3.5-2.1-8-2.1-11.5,0c-1.7,1.1-3.1,2.6-4,4.4c-1.8,4-1.8,8.5,0,12.5
				c0.9,1.8,2.3,3.3,4,4.4C232.6,464.8,234.6,465.3,236.7,465.3L236.7,465.3z"/>
			<path id="Path_1320" class="st0" d="M274,471.8c-3.5,0.1-6.8-1.3-9.1-3.9c-2.4-3-3.6-6.7-3.4-10.5v-22.1h7v20.2
				c-0.2,2.7,0.6,5.3,2.2,7.4c1.5,1.8,3.8,2.9,6.2,2.7c2.4,0.1,4.7-0.8,6.5-2.5c1.7-1.7,2.6-4,2.6-6.4v-21.6h7v35.8h-7v-5.7
				c-1.2,1.9-2.9,3.6-5,4.6C278.8,471.2,276.4,471.8,274,471.8z"/>
			<path id="Path_1321" class="st0" d="M301.5,471.1v-35.8h7v5.6c1.3-1.9,3-3.4,5-4.5c2-1.2,4.4-1.8,6.7-1.8
				c8.2,0,12.3,4.9,12.3,14.7v21.8h-7v-21.4c0-6.1-2.5-9.1-7.6-8.8c-1.7,0-3.3,0.4-4.8,1.1c-1.4,0.7-2.5,1.7-3.4,3
				c-0.8,1.3-1.2,2.8-1.2,4.3v21.7L301.5,471.1z"/>
			<path id="Path_1322" class="st0" d="M356.2,471.8c-3.1,0-6.2-0.8-8.9-2.5c-2.6-1.6-4.8-4-6.2-6.7c-3.1-6-3.1-13,0-19
				c1.4-2.7,3.6-5,6.2-6.7c2.7-1.7,5.8-2.5,8.9-2.5c3,0,6,0.6,8.7,1.9c2.5,1.1,4.6,3,6,5.3l-3.9,4.8c-1.2-1.7-2.7-3-4.5-4
				c-1.7-1-3.6-1.6-5.6-1.6c-2.1,0-4.1,0.5-5.8,1.6c-1.7,1.1-3.1,2.6-4.1,4.4c-1,1.9-1.5,4.1-1.5,6.3c-0.1,4.3,2.1,8.3,5.7,10.6
				c1.7,1.1,3.7,1.7,5.7,1.6c3.7,0,7-1.8,10-5.5l3.9,4.8c-1.6,2.2-3.8,3.9-6.2,5C362,471.1,359.1,471.7,356.2,471.8z"/>
			<path id="Path_1323" class="st0" d="M382.2,427.3c-2.4,0.3-4.6-1.5-4.9-3.9c-0.2-1.4,0.4-2.8,1.4-3.7c0.9-0.9,2.2-1.3,3.4-1.2
				c2.4-0.3,4.6,1.5,4.9,3.9c0.2,1.4-0.4,2.8-1.4,3.7C384.7,427,383.5,427.4,382.2,427.3z M378.8,471.1v-35.8h7v35.8L378.8,471.1z"
				/>
			<path id="Path_1324" class="st0" d="M395.5,471.1v-50.5h7v50.5H395.5z"/>
		</g>
	</g>
	<g id="Stacked_Medium-2">
		<path id="Path_1325" class="st0" d="M206.6,126.2c-19.4,0-35.1,15.7-35.1,35.1s15.7,35.1,35.1,35.1s35.1-15.7,35.1-35.1l0,0
			C241.6,141.9,225.9,126.2,206.6,126.2z M229.6,169.7c-4.6,12.7-18.7,19.3-31.4,14.6c-12.7-4.6-19.3-18.7-14.6-31.4
			c4.6-12.7,18.7-19.3,31.4-14.6c9.7,3.5,16.1,12.7,16.1,23C231.1,164.2,230.5,167,229.6,169.7L229.6,169.7z"/>
		<path id="Path_1326" class="st0" d="M343.4,112.9c-15.5-11.2-42.7-33.8-63.8-28.2c-19.3,5.1-20.5,15.9-24.8,23
			c-0.6,0.9-1.3,1.8-2.2,2.5l-0.1,0.1c-0.5,0.3-1,0.6-1.5,0.8l0,0c-4.7,1.9-10.8-2.7-10.5-7.6c0-0.2,0-0.4,0.1-0.6
			c0.1-0.3,0.2-0.7,0.3-1l0.2-0.5c0,0,0-0.1,0.1-0.1c0.4-0.8,0.9-1.6,1.5-2.3c5.4-6.2,15.3-10.7,14.2-30.7
			c-1.2-21.8-36.5-45.2-50.3-55l-3.8,3c-15.4,11.2-45.4,30.2-46.6,52c-1.1,19.9,8.8,24.4,14.2,30.7c0.7,0.9,1.3,1.8,1.7,2.8
			c0,0,0,0,0,0.1c0.2,0.5,0.3,1.1,0.4,1.7l0,0c0.4,5.6-7.4,10.3-12,6.7c-0.1-0.1-0.3-0.2-0.4-0.4l-0.1-0.1c-0.7-0.6-1.2-1.3-1.7-2.1
			c-4.3-7.1-5.4-17.9-24.8-23c-21.1-5.6-54.2,20.7-67.9,30.9l1.7,4.5c5.9,18.1,14.7,52.5,35.1,60.4c18.6,7.2,25.9-0.8,33.6-4.1
			c1-0.4,2.1-0.7,3.2-0.8l0,0c0.6,0,1.2,0.1,1.8,0.2l0,0c5.4,1.4,7.6,10.3,2.7,13.4l-0.4,0.3l-0.2,0.1c-0.8,0.4-1.6,0.8-2.5,1
			c-8.1,1.9-18.7-0.3-29.5,16.4c-11.9,18.3,3,58,8.4,74.1l4.8-0.2c19-0.1,54.5,2.2,68.2-14.7c12.6-15.5,7.2-24.9,6.5-33.2
			c-0.1-1.1,0-2.2,0.3-3.3l0,0c0.2-0.6,0.4-1.1,0.7-1.6l0,0c2.7-4.3,10.3-4.1,12.9,0c0,0.1,0.1,0.1,0.1,0.2c0.2,0.4,0.4,0.9,0.6,1.4
			c0,0.2,0.1,0.3,0.1,0.5c0,0.1,0,0.1,0,0.2c0.2,0.9,0.2,1.8,0.2,2.7c-0.7,8.2-6.1,17.7,6.5,33.2c13.8,17,56,15.1,73.1,14.9l1.3-4.6
			c5.8-18.1,19-51.1,7.1-69.4c-10.9-16.8-21.5-14.6-29.5-16.4c-1.1-0.3-2.1-0.7-3.1-1.3h-0.1c-0.5-0.3-0.9-0.7-1.3-1.2l0,0
			c-3.2-3.9-0.7-11.1,4-12.3c0.2-0.1,0.4-0.1,0.6-0.1c0.3,0,0.7,0,1,0l0.6,0.1h0.1c0.9,0.1,1.8,0.3,2.6,0.7
			c7.6,3.2,14.9,11.2,33.6,4c20.4-7.9,31.7-48.6,36.8-64.9L343.4,112.9z M325.9,125.6c-3.6,12.2-9.6,34.5-22.6,40.5
			c-4.4,2-9.3,2.8-14.1,2.5l0,0c-10.5-0.2-14.2-2.1-19.8-1l0,0c-11.2,2-15.8,17.8-7.9,25.3l0,0l0.2,0.2c0.1,0.1,0.2,0.2,0.3,0.3
			c4.9,4.4,11.2,7.7,13.3,9.3l0-0.1c4.9,3,8.8,6.1,12.1,11.9c7.8,13.7-1.3,34.5-5.3,45.9l-1,3.5l-3.7-0.1c-12.7,0.3-35.8,1.5-45.5-9
			c-3.2-3.6-5.6-7.9-6.7-12.6l0,0c-3-10-2.3-14.2-5.2-19.2l0,0c-5.4-10-21.8-9.6-26.5,0.3l0,0c0,0.1-0.1,0.2-0.1,0.2l-0.2,0.5
			c-2.6,6-3.9,13-4.8,15.5v-0.1c-1.4,5.6-3.1,10.3-7.5,15.1c-10.6,11.6-33.2,9.4-45.3,9.2l-3.6,0.1l-1-3.5c-4.2-12-12.5-33.6-5.5-46
			c2.4-4.2,5.8-7.7,9.9-10.3l0,0c8.6-6,12.7-6.6,16.6-10.9l0,0c7.9-8.2,2.4-23.7-8.5-25.1l0,0h-0.2h-0.5c-6.5-0.6-13.6,0.4-16.2,0.3
			h0.1c-5.7,0.4-10.7,0.2-16.7-2.5c-14.3-6.5-19.2-28.7-22.7-40.2l-1.3-3.5l3-2.1c10.1-7.7,28.1-22.3,42.1-19.4
			c4.8,1,9.2,3.1,12.9,6.2l0,0c8.3,6.3,10.2,10.1,15.5,12.5l0,0c10.2,5,23.3-5.1,21.3-15.8l0,0c0-0.1-0.1-0.2-0.1-0.3
			s-0.1-0.3-0.1-0.4c-1.4-6.4-4.5-12.8-5.3-15.4v0.1c-2.1-5.3-3.6-10.1-2.8-16.7c1.8-15.6,21.3-27.2,31.2-34l2.9-2.2l2.9,2.2
			c10.5,7.2,29.8,19.9,31.5,34c0.5,4.8-0.2,9.7-2,14.2l0,0c-3.4,9.9-6.4,12.8-7.1,18.6l0,0c-1.6,11.3,12,20.6,21.6,15.3l0,0l0.3-0.2
			l0.3-0.2c5.7-3.3,10.8-8.3,13-9.8h-0.1c4.4-3.7,8.5-6.5,15-7.8c15.4-3.1,32.4,11.9,42,19.2l3,2.1L325.9,125.6z"/>
	</g>
</g>
</svg>
