<svg id="Layer_1" data-name="Layer 1" xmlns="http://www.w3.org/2000/svg" viewBox="0 0 1040 303"><defs><style>.cls-1{fill:#fff;}</style></defs><g id="Group_2415" data-name="Group 2415"><g id="Group_2414" data-name="Group 2414"><path id="Path_1283" data-name="Path 1283" class="cls-1" d="M364.58,133.37V27.93h21.69v85.71h48.05v19.73Z"/><path id="Path_1284" data-name="Path 1284" class="cls-1" d="M487.2,134.88q-12.81,0-22.45-5.27a38.17,38.17,0,0,1-15-14.46,41.09,41.09,0,0,1-5.34-21.09,44.27,44.27,0,0,1,5.2-21.77,38.64,38.64,0,0,1,14.31-14.84,40.29,40.29,0,0,1,21-5.42A36,36,0,0,1,517.4,71.31a40.23,40.23,0,0,1,4.45,20.34l-.15,6.47H464.45a21.47,21.47,0,0,0,8.21,13.56q6.55,5,16.64,5a27.85,27.85,0,0,0,9.87-1.65,34.67,34.67,0,0,0,9.57-5.88L518.68,123a46.24,46.24,0,0,1-14.84,8.81A47.78,47.78,0,0,1,487.2,134.88ZM485.09,69.8q-17,0-20.49,15.37h37.66v-.6A14.7,14.7,0,0,0,496.91,74a17.66,17.66,0,0,0-11.82-4.15Z"/><path id="Path_1285" data-name="Path 1285" class="cls-1" d="M548.39,37.27q-6,0-9.42-3A10.5,10.5,0,0,1,535.58,26,10.85,10.85,0,0,1,539,17.68q3.39-3.16,9.42-3.16t9.34,3c2.2,2,3.31,4.82,3.31,8.44a10.64,10.64,0,0,1-3.39,8.13Q554.26,37.27,548.39,37.27Zm-10.25,96.1V53.84h20.64v79.53Z"/><path id="Path_1286" data-name="Path 1286" class="cls-1" d="M612.46,134.88a38.39,38.39,0,0,1-20.26-5.42A39.22,39.22,0,0,1,578,114.69a45.69,45.69,0,0,1,0-42.33A39.26,39.26,0,0,1,592.2,57.6a38.39,38.39,0,0,1,20.26-5.42A47.43,47.43,0,0,1,632,56.1a32.41,32.41,0,0,1,13.78,11l-11.3,13.55a26.31,26.31,0,0,0-8.73-7.45,23,23,0,0,0-11.3-3.09,20.62,20.62,0,0,0-11.23,3.09,21.53,21.53,0,0,0-7.68,8.36,25.08,25.08,0,0,0-2.79,11.9,24.56,24.56,0,0,0,2.87,11.9,21.91,21.91,0,0,0,7.83,8.36,20.67,20.67,0,0,0,11.15,3.09,22.88,22.88,0,0,0,10.84-2.64,30.41,30.41,0,0,0,9-7.46l11.3,13.56a35.53,35.53,0,0,1-14.16,10.62A46.84,46.84,0,0,1,612.46,134.88Z"/><path id="Path_1287" data-name="Path 1287" class="cls-1" d="M699.07,134.88q-12.81,0-22.45-5.27a38.17,38.17,0,0,1-15-14.46,41.09,41.09,0,0,1-5.34-21.09,44.27,44.27,0,0,1,5.2-21.77A38.64,38.64,0,0,1,675.8,57.45a40.29,40.29,0,0,1,21-5.42,36.06,36.06,0,0,1,32.47,19.28,40.33,40.33,0,0,1,4.44,20.34l-.15,6.47H676.32a21.47,21.47,0,0,0,8.21,13.56q6.56,5,16.65,5A27.83,27.83,0,0,0,711,115a34.67,34.67,0,0,0,9.57-5.88L730.55,123a46.3,46.3,0,0,1-14.83,8.81A47.88,47.88,0,0,1,699.07,134.88ZM697,69.8q-17,0-20.49,15.37h37.66v-.6A14.7,14.7,0,0,0,708.78,74,17.66,17.66,0,0,0,697,69.8Z"/><path id="Path_1288" data-name="Path 1288" class="cls-1" d="M776.5,134.88a50.12,50.12,0,0,1-19.59-3.61A34.4,34.4,0,0,1,743.05,121l13-11a26.61,26.61,0,0,0,10.24,7.16,32.44,32.44,0,0,0,11.6,2.18,12.38,12.38,0,0,0,7.54-2.11,6.88,6.88,0,0,0,2.86-5.87,6.18,6.18,0,0,0-2.71-5.27q-2.71-1.81-13-4.52Q757.37,97.68,751,90.89A21.12,21.12,0,0,1,745.47,76a19.44,19.44,0,0,1,4.21-12.43,28.15,28.15,0,0,1,11.15-8.36,37.34,37.34,0,0,1,15.07-3,47,47,0,0,1,17.62,3.32,39.43,39.43,0,0,1,13.86,9l-11.15,12.2a38.92,38.92,0,0,0-9.71-6.55,23.74,23.74,0,0,0-10.17-2.64q-10.85,0-10.85,7.53a6.94,6.94,0,0,0,3.31,5.73q3,2.1,13.72,5,14.31,3.77,20.18,9.94,5.12,5.28,5.12,14a21.55,21.55,0,0,1-4.14,13,27.75,27.75,0,0,1-11.22,9A38,38,0,0,1,776.5,134.88Z"/><path id="Path_1289" data-name="Path 1289" class="cls-1" d="M831.18,133.37v-61H816.11V53.84h15.07V33.5h20.48V53.84h16.73V72.37H851.66v61Z"/><path id="Path_1290" data-name="Path 1290" class="cls-1" d="M919.15,134.88q-12.81,0-22.44-5.27a38,38,0,0,1-15-14.46,41.1,41.1,0,0,1-5.35-21.09,44.27,44.27,0,0,1,5.2-21.77,38.64,38.64,0,0,1,14.31-14.84,40.32,40.32,0,0,1,21-5.42,36,36,0,0,1,32.47,19.28,40.22,40.22,0,0,1,4.44,20.34l-.15,6.47H896.41a21.41,21.41,0,0,0,8.2,13.56q6.55,5,16.65,5a27.93,27.93,0,0,0,9.87-1.65,34.47,34.47,0,0,0,9.56-5.88L950.64,123a46.46,46.46,0,0,1-14.84,8.81A47.83,47.83,0,0,1,919.15,134.88ZM917,69.8q-17,0-20.49,15.37h37.66v-.6A14.73,14.73,0,0,0,928.87,74,17.74,17.74,0,0,0,917,69.8Z"/><path id="Path_1291" data-name="Path 1291" class="cls-1" d="M969.77,133.37V53.83h19.88l.3,13.11a32.53,32.53,0,0,1,10.32-10.62,24.45,24.45,0,0,1,13.48-4.15,32.61,32.61,0,0,1,5,.38,22,22,0,0,1,4,1l-5.58,22.6a17.41,17.41,0,0,0-4.22-1.51,23.12,23.12,0,0,0-5.12-.6,17,17,0,0,0-12.43,5,17.3,17.3,0,0,0-5,12.73v41.58Z"/><path id="Path_1292" data-name="Path 1292" class="cls-1" d="M395.78,268.42a36.77,36.77,0,0,1-33.55-19.94,45.22,45.22,0,0,1-5-21.56,41.5,41.5,0,0,1,11.53-29.16,38.13,38.13,0,0,1,28-11.87,38.24,38.24,0,0,1,21.61,6.74,30.43,30.43,0,0,1,7.43,7.2l-8.3,8.65q-9.92-10.14-20.74-10.14a25.81,25.81,0,0,0-13.6,3.68,26.69,26.69,0,0,0-9.69,10.15A29.88,29.88,0,0,0,370,226.92a31.62,31.62,0,0,0,3.51,15.33,25.09,25.09,0,0,0,9.8,10,29,29,0,0,0,14.58,3.57,27.39,27.39,0,0,0,11.07-2.3,28.45,28.45,0,0,0,9.22-6.34l6.23,10.14a26,26,0,0,1-7.2,5.65A42.59,42.59,0,0,1,407,267,44.94,44.94,0,0,1,395.78,268.42Z"/><path id="Path_1293" data-name="Path 1293" class="cls-1" d="M446.26,193.38a7.45,7.45,0,0,1-5.82-12.91,8,8,0,0,1,5.82-2.07,7.45,7.45,0,0,1,5.82,12.91A8,8,0,0,1,446.26,193.38Zm-5.76,73.89V206.75h11.87v60.52Z"/><path id="Path_1294" data-name="Path 1294" class="cls-1" d="M477.85,267.27v-49H465.28V206.75h12.57V191.31h11.87v15.44h14.06v11.53H489.72v49Z"/><path id="Path_1295" data-name="Path 1295" class="cls-1" d="M528.6,293.78l10.26-23.63-28.13-63.4h13.84l18.9,44.5c.38.84.88,2.19,1.5,4l1.73-4.84,15.79-43.69h14.06l-24.9,60.52L541.4,293.78Z"/><path id="Path_1296" data-name="Path 1296" class="cls-1" d="M663,268.42a36.76,36.76,0,0,1-33.54-19.94,45.34,45.34,0,0,1-5-21.56,41.58,41.58,0,0,1,11.53-29.16,38.57,38.57,0,0,1,49.62-5.13,30.3,30.3,0,0,1,7.44,7.2l-8.3,8.65q-9.92-10.14-20.75-10.15a25.92,25.92,0,0,0-13.6,3.69,26.78,26.78,0,0,0-9.68,10.14,29.92,29.92,0,0,0-3.57,14.76,31.53,31.53,0,0,0,3.51,15.33,25.09,25.09,0,0,0,9.8,10,29,29,0,0,0,14.58,3.57,27.39,27.39,0,0,0,11.07-2.3,28.72,28.72,0,0,0,9.22-6.34l6.22,10.14a25.67,25.67,0,0,1-7.2,5.65,42.59,42.59,0,0,1-10.15,4A44.82,44.82,0,0,1,663,268.42Z"/><path id="Path_1297" data-name="Path 1297" class="cls-1" d="M730.85,268.42A30.72,30.72,0,0,1,715,264.33a29.81,29.81,0,0,1-11-11.18,34.46,34.46,0,0,1,0-32.39,29.81,29.81,0,0,1,11-11.18,32.51,32.51,0,0,1,31.59,0,29.91,29.91,0,0,1,11,11.18,34.52,34.52,0,0,1,0,32.39,29.91,29.91,0,0,1-11,11.18A30.49,30.49,0,0,1,730.85,268.42Zm0-10.83a17.75,17.75,0,0,0,9.69-2.71,18.77,18.77,0,0,0,6.68-7.38A21.65,21.65,0,0,0,749.53,237a21.88,21.88,0,0,0-2.31-10.66,18.47,18.47,0,0,0-6.68-7.32,19,19,0,0,0-19.43.06,18.72,18.72,0,0,0-6.74,7.38,25.32,25.32,0,0,0,0,21.1,18.69,18.69,0,0,0,6.74,7.37,17.92,17.92,0,0,0,9.74,2.71Z"/><path id="Path_1298" data-name="Path 1298" class="cls-1" d="M793.83,268.42q-9.68,0-15.44-6.57t-5.77-17.75V206.75H784.5v34.12q0,8,3.74,12.57t10.43,4.61a15.1,15.1,0,0,0,10.89-4.15,14.22,14.22,0,0,0,4.33-10.72V206.75h11.87v60.52H813.89v-9.68a22.37,22.37,0,0,1-8.36,7.83A23.49,23.49,0,0,1,793.83,268.42Z"/><path id="Path_1299" data-name="Path 1299" class="cls-1" d="M840.44,267.27V206.75h11.87v9.45a24.52,24.52,0,0,1,8.47-7.6,22.69,22.69,0,0,1,11.36-3.12q20.75,0,20.75,24.9v36.89H881V231.19q0-15.56-12.8-14.87a17.23,17.23,0,0,0-8.12,1.9,14.75,14.75,0,0,0-5.7,5.13,13.16,13.16,0,0,0-2.08,7.26v36.66Z"/><path id="Path_1300" data-name="Path 1300" class="cls-1" d="M932.81,268.42a27.68,27.68,0,0,1-15-4.15A29.68,29.68,0,0,1,907.27,253a35.15,35.15,0,0,1,0-32,29.82,29.82,0,0,1,10.49-11.3,27.68,27.68,0,0,1,15-4.15,32.67,32.67,0,0,1,14.7,3.28,23.89,23.89,0,0,1,10.08,8.94L951,225.76a22.41,22.41,0,0,0-7.66-6.79,19.05,19.05,0,0,0-9.4-2.77,18.14,18.14,0,0,0-9.85,2.71,19.45,19.45,0,0,0-6.86,7.43,22.11,22.11,0,0,0-2.54,10.6,20.93,20.93,0,0,0,2.66,10.55,20.61,20.61,0,0,0,7,7.43,17.73,17.73,0,0,0,9.68,2.77q9.33,0,16.94-9.22l6.57,8.07a27.2,27.2,0,0,1-10.54,8.53A32.15,32.15,0,0,1,932.81,268.42Z"/><path id="Path_1301" data-name="Path 1301" class="cls-1" d="M976.72,193.38a7.45,7.45,0,0,1-5.82-12.91,8,8,0,0,1,5.82-2.07,7.45,7.45,0,0,1,5.82,12.91A8,8,0,0,1,976.72,193.38ZM971,267.27V206.75h11.87v60.52Z"/><path id="Path_1302" data-name="Path 1302" class="cls-1" d="M999.12,267.27V182H1011v85.3Z"/></g></g><g id="Group_2416" data-name="Group 2416"><path id="Path_1303" data-name="Path 1303" class="cls-1" d="M159.86,123.69a35.52,35.52,0,1,0,35.51,35.52h0A35.56,35.56,0,0,0,159.86,123.69Zm23.32,44.05a24.82,24.82,0,1,1,1.51-8.53,24.85,24.85,0,0,1-1.51,8.53Z"/><path id="Path_1304" data-name="Path 1304" class="cls-1" d="M298.44,110.15C282.8,98.86,255.16,75.9,233.77,81.59c-19.55,5.2-20.75,16.12-25.08,23.3a11.07,11.07,0,0,1-2.2,2.53l-.07.06a6.78,6.78,0,0,1-1.5.86h0c-4.73,1.88-10.9-2.77-10.6-7.72,0-.2,0-.41.08-.63a5.23,5.23,0,0,1,.28-1l.24-.55.05-.1A10.05,10.05,0,0,1,196.45,96c5.48-6.33,15.51-10.85,14.41-31-1.2-22.09-36.93-45.74-51-55.71l-3.84,3c-15.57,11.4-45.95,30.59-47.15,52.68-1.1,20.2,8.93,24.72,14.41,31.05A11.18,11.18,0,0,1,125,98.87a.14.14,0,0,0,0,.06,6.74,6.74,0,0,1,.35,1.72h0c.37,5.66-7.51,10.48-12.1,6.82l-.4-.35-.14-.14a10.24,10.24,0,0,1-1.73-2.1c-4.33-7.18-5.53-18.1-25.09-23.3-21.38-5.69-54.91,21-68.74,31.27l1.7,4.59c6,18.33,14.89,53.15,35.53,61.12,18.87,7.29,26.27-.85,34-4.11a11.25,11.25,0,0,1,3.3-.76h0a7.06,7.06,0,0,1,1.77.19h0c5.5,1.4,7.66,10.4,2.74,13.62-.14.09-.28.18-.43.26l-.23.12a9.71,9.71,0,0,1-2.49,1c-8.16,1.9-18.93-.33-29.91,16.66-12,18.58,3,58.71,8.5,75l4.89-.2c19.29-.06,55.15,2.27,69.11-14.9,12.76-15.7,7.31-25.24,6.6-33.59a10.93,10.93,0,0,1,.3-3.37v0a6.52,6.52,0,0,1,.72-1.62h0c2.73-4.31,10.45-4.16,13.12,0l.1.18a5.77,5.77,0,0,1,.58,1.38c0,.18.09.35.12.53s0,.13,0,.2a10.2,10.2,0,0,1,.16,2.7c-.71,8.35-6.17,17.9,6.6,33.59,14,17.17,56.76,15.3,74,15.1l1.32-4.71c5.9-18.37,19.2-51.75,7.18-70.33-11-17-21.76-14.74-29.92-16.64a11,11,0,0,1-3.1-1.31l-.06,0a6.88,6.88,0,0,1-1.29-1.18h0c-3.26-3.92-.74-11.22,4.06-12.47.2,0,.42-.09.65-.12a6,6,0,0,1,1-.05l.6.06h.11a10.37,10.37,0,0,1,2.68.69c7.72,3.26,15.11,11.4,34,4.1,20.64-8,32.09-49.25,37.23-65.7ZM280.73,123c-3.7,12.36-9.78,35-22.9,41a30.1,30.1,0,0,1-14.26,2.54h0c-10.6-.23-14.37-2.18-20.09-1h0c-11.35,2-16,18-8,25.62h0l.23.2a2.88,2.88,0,0,0,.33.28c5,4.42,11.36,7.82,13.5,9.46l-.06-.07c4.91,3.08,8.95,6.19,12.24,12,7.84,13.87-1.31,34.95-5.34,46.46l-1.07,3.54-3.7-.08c-12.9.3-36.3,1.51-46.05-9.12a30.11,30.11,0,0,1-6.82-12.78v0c-3.06-10.16-2.36-14.34-5.25-19.42h0c-5.41-10.16-22.09-9.7-26.84.3h0a2.29,2.29,0,0,1-.1.23l-.21.47c-2.65,6.09-3.9,13.21-4.81,15.74l.06-.07c-1.42,5.62-3.13,10.42-7.64,15.34-10.77,11.75-33.64,9.56-45.84,9.28l-3.69.08-1.07-3.55c-4.27-12.18-12.66-34-5.56-46.61a30.14,30.14,0,0,1,10-10.44v0c8.71-6,12.9-6.68,16.84-11h0c8-8.29,2.4-24-8.58-25.44h0l-.24,0-.52,0c-6.61-.64-13.76.36-16.45.29l.08,0c-5.78.39-10.87.24-16.95-2.53-14.5-6.61-19.48-29-23-40.72l-1.22-3.49,3-2.11c10.26-7.83,28.48-22.56,42.61-19.69a29.94,29.94,0,0,1,13,6.32h0c8.44,6.42,10.34,10.21,15.66,12.62h0c10.36,5,23.57-5.13,21.54-16h0c0-.1,0-.2-.07-.3a3.15,3.15,0,0,0-.09-.42c-1.43-6.5-4.6-13-5.36-15.58v.09c-2.16-5.38-3.6-10.27-2.84-16.9,1.81-15.83,21.6-27.5,31.63-34.45l2.94-2.24,2.95,2.25c10.61,7.34,30.26,20.11,31.89,34.44a30.06,30.06,0,0,1-2,14.35v0c-3.5,10-6.52,13-7.16,18.8h0c-1.6,11.41,12.17,20.83,21.9,15.53h0l.3-.17.33-.19c5.74-3.37,11-8.4,13.17-9.93l-.08,0c4.44-3.71,8.65-6.59,15.2-7.92,15.61-3.19,32.82,12,42.52,19.43l3,2.1Z"/></g></svg>